# xmcd
#
# Track frame offsets:
#	150
#	18842
#	38387
#	53530
#	69360
#	89872
#	107655
#	127130
#	142565
#	162050
#	179267
#	193677
#
# Disc length: 2835 seconds
# Revision: 0
# Processed by: cddbd v1.5.2PL0 Copyright (c) Steve Scherf et al.
# Submitted via: dBpowerAMP V12.0
#
DISCID=920b110c
DTITLE=Blue Miller - Blue
DYEAR=2000
DGENRE=Country
TTITLE0=Every Man
TTITLE1=It Ain't Easy
TTITLE2=Ready For Your Love
TTITLE3=Sometime Tomorrow
TTITLE4=Callin' Up Your Memories
TTITLE5=Rock On Through The Night
TTITLE6=What Are You Waiting For
TTITLE7=You And Me
TTITLE8=Every Bit Of Your Love
TTITLE9=Thunder Rose
TTITLE10=I Have
TTITLE11=Don't Shoot, Let's Talk
EXTD=
EXTT0=
EXTT1=
EXTT2=
EXTT3=
EXTT4=
EXTT5=
EXTT6=
EXTT7=
EXTT8=
EXTT9=
EXTT10=
EXTT11=
PLAYORDER=
